<svg t="1623399298760" class="icon" viewBox="0 0 1024 1024" version="1.1" xmlns="http://www.w3.org/2000/svg" p-id="872" width="200" height="200"><path d="M950.43002428 848.57995022c-15.27555201 0-28.73874963-10.35630577-32.62236445-24.85513483l-46.34446931-169.84342041c38.31833244-21.48933571 61.87892978-66.2803591 49.96917689-115.47281423a103.61484325 103.61484325 0 0 0-61.62002133-70.68178964s-0.25890725 0-0.25890847-0.25890725c-4.40143053-1.81235317-9.06176831-3.3657991-13.98101333-4.40143053-4.14252206-1.03563022-8.28504534-1.81235317-12.4275674-2.07126164-1.55344592-0.25890725-3.10689185-0.25890725-4.91924503-0.25890724-2.33016889-0.25890725-4.91924502-0.51781571-7.24941392-0.51781572-6.47269095 0-12.94538311 0.77672297-18.90025957 1.81235438-1.03563022 0.25890725-1.81235317 0.25890725-2.84798339 0.51781451-5.95487645 1.29453868-11.39193719 3.10689185-16.82899794 5.17815349-1.03563022 0.51781571-2.07126164 0.77672297-3.10689184 1.29453867-5.43706075 2.33016889-10.61521423 5.17815349-15.27555202 8.28504414-0.77672297 0.51781571-1.29453868 1.03563022-2.07126042 1.55344592-4.91924502 3.3657991-9.57958281 7.24941392-13.72210609 11.39193719 0 0-0.25890725 0-0.25890724 0.25890726-4.14252206 4.14252206-8.02613689 9.06176831-11.3919372 13.98101333-0.51781571 0.77672297-1.03563022 1.55344592-1.55344593 2.07126163-3.10689185 4.91924502-5.95487645 9.83849127-8.28504534 15.27555202-0.51781571 1.03563022-0.77672297 2.07126164-1.29453746 3.10689184-2.33016889 5.43706075-3.88361482 11.13302873-5.1781535 16.82899673-0.25890725 0.77672297-0.25890725 1.81235317-0.51781571 2.58907735-1.55344592 6.47269095-2.33016889 12.94538311-2.33016888 19.41807408 0 38.83614815 21.48933571 72.23523555 53.07606994 89.84095524l-46.34447053 169.84342164c-3.88361482 14.7577363-17.34681244 25.11404206-32.62236445 25.11404207-28.47984238 0-51.78153127 23.30168889-51.78153126 51.78153126v51.78153127c0 28.47984238 23.30168889 51.78153127 51.78153126 51.78153006h258.90765392c28.47984238 0 51.78153127-23.30168889 51.78153128-51.78153006v-51.78153127c0-28.47984238-23.30168889-51.78153127-51.78153128-51.78153126z" p-id="873"></path><path d="M660.97126756 648.44433423c-13.72210608-25.63185778-21.23042725-54.62951466-21.23042846-84.66280296 0-99.93835498 81.29700386-181.23535762 181.23535883-181.23535883 6.47269095 0 17.08790518 1.55344592 27.18530371 3.10689185 12.94538311 2.07126164 24.59622756-7.76722963 24.59622635-20.97152V123.63851852c0-57.21859201-46.34447053-103.56306132-103.56306133-103.56306133H121.92553127C64.70693926 20.07545719 18.36246873 66.41992651 18.36246873 123.63851852v776.72296296c0 57.21859201 46.34447053 103.56306132 103.56306254 103.56306133h433.92922783c8.02613689 0 13.72210608-7.50832238 11.65084444-15.2755508-3.62470756-11.39193719-5.43706075-23.81950461-5.43706074-36.50597926v-51.78153127c0-45.56774756 23.56059614-85.69843317 59.28985365-108.74121481 23.30168889-15.01664355 41.16631703-37.28270222 48.67463821-64.20909868 7.24941392-26.40858075 3.88361482-54.62951466-9.0617671-78.96683376zM445.56009836 615.56306132h-233.0168889c-21.48933571 0-38.83614815-17.34681244-38.83614813-38.83614815s17.34681244-38.83614815 38.83614813-38.83614815h233.0168889c21.48933571 0 38.83614815 17.34681244 38.83614814 38.83614815s-17.34681244 38.83614815-38.83614814 38.83614815z m0-155.34459259h-233.0168889c-21.48933571 0-38.83614815-17.34681244-38.83614813-38.83614814s17.34681244-38.83614815 38.83614813-38.83614815h233.0168889c21.48933571 0 38.83614815 17.34681244 38.83614814 38.83614815s-17.34681244 38.83614815-38.83614814 38.83614814z m-233.0168889-155.34459259c-21.48933571 0-38.83614815-17.34681244-38.83614813-38.83614815s17.34681244-38.83614815 38.83614813-38.83614815h440.14301276c21.48933571 0 38.83614815 17.34681244 38.83614814 38.83614815s-17.34681244 38.83614815-38.83614814 38.83614815h-440.14301276z" p-id="874"></path></svg>