<svg class="icon" viewBox="0 0 1024 1024" xmlns="http://www.w3.org/2000/svg" width="200" height="200"><defs><style/></defs><path d="M640 608h-64V416h64v192zm0 160v160q0 14.016-8.992 23.008T608 960H416q-14.016 0-23.008-8.992T384 928V768h64v128h128V768h64zM384 608V416h64v192h-64zm256-352h-64V128H448v128h-64V96q0-14.016 8.992-23.008T416 64h192q14.016 0 23.008 8.992T640 96v160zm-419.008 0l-71.008 80 71.008 80H768V256H220.992zm-14.976-64h594.016q14.016 0 23.008 8.992T832.032 224v224q0 14.016-8.992 23.008T800.032 480H206.016q-14.016 0-24-11.008l-99.008-112q-8-8.992-8-20.992t8-20.992l99.008-112q10.016-11.008 24-11.008zm678.976 496l-71.008 80H266.976V608h547.008zM828 544H235.008q-14.016 0-23.008 8.992T203.008 576v224q0 14.016 8.992 23.008T235.008 832H828q15.008 0 24-11.008l100-112Q960 700 960 688t-8-20.992l-100-112Q843.008 544 828 544z"/></svg>