<svg class="icon" viewBox="0 0 1024 1024" xmlns="http://www.w3.org/2000/svg" width="200" height="200"><defs><style/></defs><path d="M511.872 109.952l435.712 357.76h-160.96V914.24c0 18.944-15.36 34.304-34.304 34.304H632.064V673.792a34.304 34.304 0 0 0-34.304-34.304H426.048a34.368 34.368 0 0 0-34.368 34.304v274.752H271.488a34.368 34.368 0 0 1-34.368-34.304V467.712H77.248l434.688-357.76zm0-51.2A51.2 51.2 0 0 0 479.36 70.4L44.672 428.224a51.264 51.264 0 0 0 32.512 90.752h108.672v395.328c0 47.168 38.4 85.504 85.568 85.504h120.192a51.2 51.2 0 0 0 51.2-51.2v-257.92H580.8v257.92a51.2 51.2 0 0 0 51.2 51.2h120.256c47.168 0 85.504-38.4 85.504-85.504V518.976h109.76a51.136 51.136 0 0 0 32.512-90.752L544.32 70.464a51.328 51.328 0 0 0-32.512-11.648z"/></svg>