<svg class="icon" viewBox="0 0 1025 1024" xmlns="http://www.w3.org/2000/svg" width="200.195" height="200"><defs><style/></defs><path d="M146.336 749.728v109.728q0 7.424-5.44 12.864t-12.864 5.44H18.304q-7.424 0-12.864-5.44T0 859.456V749.728q0-7.424 5.44-12.864t12.864-5.44h109.728q7.424 0 12.864 5.44t5.44 12.864zm0-219.456V640q0 7.424-5.44 12.864t-12.864 5.44H18.304q-7.424 0-12.864-5.44T0 640V530.272q0-7.424 5.44-12.864t12.864-5.44h109.728q7.424 0 12.864 5.44t5.44 12.864zm0-219.424v109.728q0 7.424-5.44 12.864t-12.864 5.44H18.304q-7.424 0-12.864-5.44T0 420.576V310.848q0-7.424 5.44-12.864t12.864-5.44h109.728q7.424 0 12.864 5.44t5.44 12.864zm877.728 438.88v109.728q0 7.424-5.44 12.864t-12.864 5.44h-768q-7.424 0-12.864-5.44t-5.44-12.864V749.728q0-7.424 5.44-12.864t12.864-5.44h768q7.424 0 12.864 5.44t5.44 12.864zM146.336 91.424v109.728q0 7.424-5.44 12.864t-12.864 5.44H18.304q-7.424 0-12.864-5.44T0 201.152V91.424Q0 84 5.44 78.56t12.864-5.44h109.728q7.424 0 12.864 5.44t5.44 12.864zm877.728 438.848V640q0 7.424-5.44 12.864t-12.864 5.44h-768q-7.424 0-12.864-5.44T219.456 640V530.272q0-7.424 5.44-12.864t12.864-5.44h768q7.424 0 12.864 5.44t5.44 12.864zm0-219.424v109.728q0 7.424-5.44 12.864t-12.864 5.44h-768q-7.424 0-12.864-5.44t-5.44-12.864V310.848q0-7.424 5.44-12.864t12.864-5.44h768q7.424 0 12.864 5.44t5.44 12.864zm0-219.424v109.728q0 7.424-5.44 12.864t-12.864 5.44h-768q-7.424 0-12.864-5.44t-5.44-12.864V91.424q0-7.424 5.44-12.864t12.864-5.44h768q7.424 0 12.864 5.44t5.44 12.864z"/></svg>