<svg class="icon" viewBox="0 0 1024 1024" xmlns="http://www.w3.org/2000/svg" width="200" height="200"><defs><style/></defs><path d="M945.28 892.992c3.264 3.392-39.36-40.256-39.36-40.256s65.6-23.488 78.72-100.608c3.264 0 0-604.032 0-604.032V128H1024v684.48s-19.712 53.696-78.72 80.512zm-827.136 0C26.24 852.736 0 772.16 0 772.16V369.6h236.288V128s590.72 3.328 590.72 0c26.304 3.328 39.424 40.256 39.424 40.256v603.968c16.384 90.624 78.72 120.832 78.72 120.832s-823.744 6.72-827.008-.064zm630.144-644.224H256V349.44h492.288V248.768zM512 731.968h236.288v-40.256H512v40.256zm0-80.576h236.288v-40.256H512v40.256zm0-80.512h236.288v-40.256H512v40.256zm0-80.512h236.288v-40.256H512v40.256zm-137.856-40.256H98.496v281.792h275.712V450.112zM905.856 128h39.36v664.384h-39.36V128zm-708.928 0v201.28H0L196.928 128z"/></svg>