<svg class="icon" viewBox="0 0 1024 1024" xmlns="http://www.w3.org/2000/svg" width="200" height="200"><path d="M749.01 972.915H274.988c-79.501 0-144.179-64.678-144.179-144.179V216.509c0-79.501 64.678-144.179 144.179-144.179h61.891c24.129 0 43.691 19.562 43.691 43.691 0 24.13-19.562 43.691-43.691 43.691h-61.891c-31.317 0-56.798 25.479-56.798 56.798v612.227c0 31.318 25.481 56.798 56.798 56.798H749.01c31.318 0 56.798-25.479 56.798-56.798V216.51c0-31.318-25.479-56.798-56.798-56.798h-61.891c-24.129 0-43.691-19.561-43.691-43.691 0-24.129 19.562-43.691 43.691-43.691h61.891c79.501 0 144.179 64.678 144.179 144.179v612.227c0 79.501-64.678 144.179-144.179 144.179z"/><path d="M564.06 181.556H459.937c-36.195 0-65.536-29.341-65.536-65.536s29.341-65.536 65.536-65.536H564.06c36.195 0 65.536 29.341 65.536 65.536s-29.341 65.536-65.536 65.536zm115.312 220.636H344.629c-24.129 0-43.691-19.562-43.691-43.691s19.562-43.691 43.691-43.691h334.743c24.129 0 43.691 19.562 43.691 43.691s-19.562 43.691-43.691 43.691zm0 171.477H344.629c-24.129 0-43.691-19.562-43.691-43.691s19.562-43.691 43.691-43.691h334.743c24.129 0 43.691 19.562 43.691 43.691s-19.562 43.691-43.691 43.691zm0 171.478H344.629c-24.129 0-43.691-19.562-43.691-43.691s19.562-43.691 43.691-43.691h334.743c24.129 0 43.691 19.562 43.691 43.691s-19.562 43.691-43.691 43.691z"/></svg>