<svg t="1623399242874" class="icon" viewBox="0 0 1024 1024" version="1.1" xmlns="http://www.w3.org/2000/svg" p-id="1820" width="200" height="200"><path d="M987.22216163 178.59712569c-151.25356999-5.4698587-475.37002723-175.04128227-475.37002723-175.04128228l-5.40232931 0c0 0-315.21774933 169.57142471-466.47131933 175.04128228-12.60465835 63.81734002 8.15123001 457.65993472 114.38965987 614.4671926 70.33040669 105.75408355 286.55746275 199.89781731 351.18165903 223.81593032 0 0 4.00517461 3.68732274 12.60465835 0.45640362 83.44386219-31.36028672 270.04775879-105.75408355 354.67803761-224.27116999C989.87442517 614.37762787 999.58581021 243.94784313 987.22216163 178.59712569zM702.70454329 478.57192505l-153.02329913 0 0 71.63325326 153.02329913 0 0 59.39884032-153.02329913 0 0 136.53571698-72.62756067 0L477.05368349 609.60401863 325.30295922 609.60401863 325.30295922 550.20517831l151.74956032 0 0-71.63325326L325.30295922 478.57192505l0-59.98098774 123.37452487 0-80.33868686-143.1302838 79.54230954 0c0 0 62.85214037 116.06973781 65.63247673 126.60311495 3.25886179-11.40543488 66.60815531-126.60311495 66.60815531-126.60311495l79.60867385 0L578.33571101 418.59093618l124.36883342 0L702.70454329 478.57192505z" p-id="1821"></path></svg>