<?xml version="1.0" standalone="no"?><!DOCTYPE svg PUBLIC "-//W3C//DTD SVG 1.1//EN" "http://www.w3.org/Graphics/SVG/1.1/DTD/svg11.dtd"><svg t="1621474257449" class="icon" viewBox="0 0 1024 1024" version="1.1" xmlns="http://www.w3.org/2000/svg" p-id="3500" xmlns:xlink="http://www.w3.org/1999/xlink" width="200" height="200"><defs><style type="text/css"></style></defs><path d="M888.638311 471.82434A32.245106 32.245106 0 0 1 856.240694 439.448511V90.50417c0-10.806468-10.784681-21.569362-21.569361-21.569361H100.811929c-10.806468 0-21.591149 10.762894-21.591149 21.569361v827.370213c0 10.806468 10.784681 21.591149 21.569361 21.591149H482.153886c17.974468 0 32.354043 14.379574 32.354043 32.37583a32.245106 32.245106 0 0 1-32.354043 32.375829H68.457886C36.082056 1007.812085 10.896014 982.64783 10.896014 950.250213V58.12834A56.821106 56.821106 0 0 1 68.457886 0.566468h798.589277a56.821106 56.821106 0 0 1 57.561872 57.561872V439.448511c0 14.379574-17.974468 32.37583-35.970724 32.375829z m-294.999148 64.75166H215.95746c-7.189787 0-17.974468-3.616681-25.164255-10.806468-7.211574-7.189787-10.806468-14.379574-10.806468-25.164255a32.201532 32.201532 0 0 1 32.37583-32.37583h377.725276a32.245106 32.245106 0 0 1 32.37583 32.37583c0 7.189787-3.594894 17.974468-10.784681 25.164255a19.804596 19.804596 0 0 1-17.996255 10.806468zM179.96495 342.321021a32.245106 32.245106 0 0 1 32.37583-32.397617h503.633702c10.784681 0 21.569362 7.189787 28.759149 17.996256 7.189787 10.784681 7.189787 25.186043 0 32.375829-7.189787 10.784681-17.974468 17.974468-28.759149 17.974468H212.34078c-17.974468-3.573106-32.37583-17.974468-32.37583-35.948936z m284.192681 291.382468c10.784681 0 21.569362 7.189787 28.759149 17.974468 7.189787 10.806468 7.189787 25.186043 0 32.37583-7.189787 10.806468-17.974468 17.996255-28.759149 17.996256H215.913886c-10.784681 0-21.569362-7.189787-28.759149-17.996256-7.211574-10.784681-7.211574-25.186043 0-32.37583 7.189787-7.189787 17.974468-17.974468 28.759149-17.974468h248.221957z m485.637446 262.601532c0-10.806468-10.806468-21.591149-21.569361-21.591149H669.175503c-10.784681 0-21.569362 10.784681-21.569362 21.569362v21.591149c0 10.806468 10.784681 21.591149 21.569362 21.591149h259.006638c10.784681 0 21.569362-10.784681 21.569362-21.569362v-21.591149z m-151.094468-176.258723l-50.350298 82.726128h97.12749l-46.777192-82.747915z m0-133.12a32.245106 32.245106 0 0 0-32.375829 32.37583c0 17.996255 14.379574 32.37583 32.375829 32.375829a32.245106 32.245106 0 0 0 32.37583-32.375829 32.245106 32.245106 0 0 0-32.37583-32.37583z m161.879149 420.885787H633.226567a56.821106 56.821106 0 0 1-57.561873-57.561872v-89.937702a56.821106 56.821106 0 0 1 57.561873-57.540085h35.970723l61.156766-107.912171c-32.37583-28.802723-46.777191-71.963234-32.37583-111.550638 14.379574-39.54383 53.966979-68.324766 93.532596-68.324766 43.160511 0 82.726128 25.186043 97.127489 68.346553 14.379574 43.160511 3.594894 86.321021-32.375829 111.528851l61.156766 107.912171h35.970723a56.821106 56.821106 0 0 1 57.561872 57.540085v89.937702c7.189787 32.37583-17.996255 57.561872-50.372085 57.561872z" fill="#ffffff" p-id="3501"></path></svg>