<?xml version="1.0" standalone="no"?><!DOCTYPE svg PUBLIC "-//W3C//DTD SVG 1.1//EN" "http://www.w3.org/Graphics/SVG/1.1/DTD/svg11.dtd"><svg t="1621474406593" class="icon" viewBox="0 0 1024 1024" version="1.1" xmlns="http://www.w3.org/2000/svg" p-id="1461" xmlns:xlink="http://www.w3.org/1999/xlink" width="200" height="200"><defs><style type="text/css"></style></defs><path d="M716.8 51.2H307.2c-30.72 0-51.2 20.48-51.2 51.2v307.2h102.4c30.72 0 51.2 20.48 51.2 51.2v256h102.4c30.72 0 51.2 20.48 51.2 51.2v204.8h358.4c30.72 0 51.2-20.48 51.2-51.2V307.2l-256-256z" fill="#ffffff" p-id="1462"></path><path d="M716.8 51.2v256h256z" fill="#ffffff" p-id="1463"></path><path d="M972.8 563.2V307.2h-256z" opacity=".1" p-id="1464" fill="#ffffff"></path><path d="M51.2 614.4h153.6v358.4H51.2z" fill="#ffffff" p-id="1465"></path><path d="M204.8 460.8h153.6v512H204.8z" fill="#ffffff" p-id="1466"></path><path d="M358.4 768h153.6v204.8H358.4z" fill="#ffffff" p-id="1467"></path></svg>