<?xml version="1.0" standalone="no"?><!DOCTYPE svg PUBLIC "-//W3C//DTD SVG 1.1//EN" "http://www.w3.org/Graphics/SVG/1.1/DTD/svg11.dtd"><svg t="1621474202489" class="icon" viewBox="0 0 1024 1024" version="1.1" xmlns="http://www.w3.org/2000/svg" p-id="2612" xmlns:xlink="http://www.w3.org/1999/xlink" width="200" height="200"><defs><style type="text/css"></style></defs><path d="M626.409899 955.804601c-32.083922 21.161736-60.072023 38.364179-92.428999 59.662441a29.08032 29.08032 0 0 1-20.069517 8.532958c-7.986849 0-15.905433-4.09582-24.233601-8.532958-27.988102-21.161736-60.072023-42.664789-92.155945-59.662441-116.457809-76.455303-240.970731-152.910605-297.083462-301.793655A470.404902 470.404902 0 0 1 68.28619 484.034425v-293.533751c0-17.134179 11.946141-34.131832 27.988102-42.664789L498.005949 3.116919a24.711446 24.711446 0 0 1 24.028809 0l401.526867 144.718966c20.069517 8.532958 32.152185 25.53061 32.152185 42.664789v293.533751c0 63.826525-12.287459 118.983565-32.152185 169.976521-56.180995 148.814785-180.625652 225.270088-297.151726 301.793655z m12.970096-387.737607H542.923439v-44.098326h96.456556a32.42524 32.42524 0 0 0 31.810867-33.107877 32.288713 32.288713 0 0 0-31.810867-32.903085H542.923439v-15.700643L660.814785 336.243595a34.063568 34.063568 0 0 0-0.682636-46.828873 31.059967 31.059967 0 0 0-44.91749 1.297009L514.184437 378.908384 407.351805 290.165622a30.718648 30.718648 0 0 0-44.985754 0 33.858777 33.858777 0 0 0-0.477846 46.624082L479.165178 437.615134v20.479099H385.029587a32.288713 32.288713 0 0 0-31.810867 32.834822c0 18.089871 14.198842 33.107877 31.810867 33.107877H479.233442v44.16659H385.029587a32.288713 32.288713 0 0 0-31.810867 32.903085c0 18.431189 14.198842 33.039613 31.810867 33.039613H479.233442v76.318776c0 18.089871 14.335369 33.107877 31.947394 33.107876a32.561767 32.561767 0 0 0 31.810867-33.107876V634.077957h96.456556a32.288713 32.288713 0 0 0 31.810867-33.039613 32.288713 32.288713 0 0 0-31.810867-32.903086z" fill="#ffffff" p-id="2613"></path></svg>