<svg class="icon" viewBox="0 0 1024 1024" xmlns="http://www.w3.org/2000/svg" width="200" height="200"><defs><style/></defs><path d="M403.267 621.184c-54.79 30.418-62.925-17.08-62.925-17.08l-68.675-159.621c-26.424-75.853 22.871-34.207 22.871-34.207s42.302 31.867 74.399 51.297c32.082 19.425 68.649 5.694 68.649 5.694l448.962-206.408C803.707 158.198 666.88 91.069 511.97 91.069c-252.805 0-457.717 178.647-457.717 399.023 0 126.766 67.855 239.58 173.547 312.709l-19.057 109.132s-9.282 31.872 22.912 17.091c21.945-10.076 77.88-46.188 111.181-68.152 52.352 18.176 109.379 28.267 169.175 28.267 252.78 0 457.744-178.642 457.744-399.022 0-63.836-17.265-124.119-47.867-177.618-143.048 85.699-475.74 284.918-518.62 308.685z"/></svg>